<svg width="18" height="18" viewBox="0 0 18 18" fill="none" xmlns="http://www.w3.org/2000/svg">
<path d="M17.8556 7.33402C17.9356 7.33402 18.0005 7.39888 18.0005 7.47889V9C18.0005 9.56932 17.9476 10.126 17.8462 10.666C17.0616 14.8604 13.3663 18.0303 8.93702 17.9998C3.96702 17.9655 -0.0104929 13.9498 0.000511058 8.97972C0.0114447 4.01857 4.03677 0 9.00048 0C11.4323 0 13.6388 0.964758 15.2588 2.53188C15.3173 2.58845 15.3188 2.68168 15.2612 2.7392L13.1093 4.89115C13.0539 4.94656 12.9644 4.948 12.9076 4.89396C11.8908 3.92614 10.5152 3.33197 9.00048 3.33197C5.87259 3.33197 3.35382 5.83284 3.33259 8.96066C3.31125 12.109 5.85712 14.668 9.00048 14.668C11.5509 14.668 13.708 12.9832 14.4193 10.666H9.14536C9.06534 10.666 9.00048 10.6011 9.00048 10.5211V7.47886C9.00048 7.39884 9.06534 7.33398 9.14536 7.33398H17.8556V7.33402Z" fill="#2196F3"/>
</svg>
