<svg width="30" height="30" viewBox="0 0 30 30" fill='none' xmlns="http://www.w3.org/2000/svg">
<g clip-path="url(#clip0)">
<path d="M23.7122 8.71216L22.3866 10.0378L26.4112 14.0625H13.1251V15.9375H26.4112L22.3866 19.9622L23.7122 21.2878L30.0001 15L23.7122 8.71216Z"/>
<path d="M20.6251 28.125H1.87508V1.87502H20.6251V3.75004H22.5001V0.93751C22.5001 0.419302 22.0808 0 21.5626 0H0.937571C0.419363 0 6.10352e-05 0.419302 6.10352e-05 0.93751V29.0625C6.10352e-05 29.5807 0.419363 30 0.937571 30H21.5626C22.0808 30 22.5001 29.5807 22.5001 29.0625V26.25H20.6251V28.125Z" />
</g>
<defs>
<clipPath id="clip0">
<rect width="30" height="30" />
</clipPath>
</defs>
</svg>
